<svg xmlns="http://www.w3.org/2000/svg" xmlns:xlink="http://www.w3.org/1999/xlink" width="500" zoomAndPan="magnify" viewBox="0 0 375 187.499995" height="250" preserveAspectRatio="xMidYMid meet" version="1.0"><defs><filter x="0%" y="0%" width="100%" height="100%" id="2e59bc8fd3"><feColorMatrix values="0 0 0 0 1 0 0 0 0 1 0 0 0 0 1 0 0 0 1 0" color-interpolation-filters="sRGB"/></filter><g/><mask id="c2c815689f"><g filter="url(#2e59bc8fd3)"><rect x="-37.5" width="450" fill="#000000" y="-18.749999" height="224.999994" fill-opacity="0.7098"/></g></mask><clipPath id="bbd50253f6"><rect x="0" width="205" y="0" height="187"/></clipPath></defs><g mask="url(#c2c815689f)"><g transform="matrix(1, 0, 0, 1, 85, 0)"><g clip-path="url(#bbd50253f6)"><g fill="#3e00b8" fill-opacity="1"><g transform="translate(1.203716, 139.739069)"><g><path d="M 3.453125 0 L 3.453125 -1.578125 L 6.28125 -2.671875 C 8.382812 -3.503906 9.828125 -4.550781 10.609375 -5.8125 C 11.390625 -7.070312 11.78125 -8.75 11.78125 -10.84375 L 11.78125 -92.890625 C 11.78125 -95.097656 11.390625 -96.828125 10.609375 -98.078125 C 9.828125 -99.335938 8.382812 -100.335938 6.28125 -101.078125 L 3.453125 -102.171875 L 3.453125 -103.75 L 48.578125 -103.75 C 61.359375 -103.75 70.578125 -101.414062 76.234375 -96.75 C 81.890625 -92.082031 84.71875 -86.1875 84.71875 -79.0625 C 84.71875 -73.71875 82.648438 -68.867188 78.515625 -64.515625 C 74.378906 -60.171875 67.28125 -57.109375 57.21875 -55.328125 C 68.738281 -54.066406 77.171875 -51.050781 82.515625 -46.28125 C 87.867188 -41.519531 90.546875 -35.734375 90.546875 -28.921875 C 90.546875 -25.566406 89.8125 -22.1875 88.34375 -18.78125 C 86.875 -15.375 84.382812 -12.253906 80.875 -9.421875 C 77.363281 -6.597656 72.566406 -4.320312 66.484375 -2.59375 C 60.410156 -0.863281 52.710938 0 43.390625 0 Z M 35.046875 -55.484375 L 41.8125 -55.484375 C 48.832031 -55.484375 53.890625 -57.109375 56.984375 -60.359375 C 60.078125 -63.609375 61.625 -69.269531 61.625 -77.34375 C 61.625 -85.71875 60.207031 -91.6875 57.375 -95.25 C 54.539062 -98.8125 49.929688 -100.59375 43.546875 -100.59375 L 35.046875 -100.59375 Z M 35.046875 -3.140625 L 42.90625 -3.140625 C 50.769531 -3.140625 56.613281 -5.234375 60.4375 -9.421875 C 64.257812 -13.617188 66.171875 -20.171875 66.171875 -29.078125 C 66.171875 -37.460938 64.335938 -43.4375 60.671875 -47 C 57.003906 -50.5625 50.976562 -52.34375 42.59375 -52.34375 L 35.046875 -52.34375 Z M 35.046875 -3.140625 "/></g></g></g><g fill="#3e00b8" fill-opacity="1"><g transform="translate(95.194123, 139.739069)"><g><path d="M 3.453125 0 L 3.453125 -1.578125 L 6.609375 -2.828125 C 8.703125 -3.554688 10.085938 -4.550781 10.765625 -5.8125 C 11.441406 -7.070312 11.78125 -8.695312 11.78125 -10.6875 L 11.78125 -92.890625 C 11.78125 -94.992188 11.441406 -96.671875 10.765625 -97.921875 C 10.085938 -99.179688 8.703125 -100.179688 6.609375 -100.921875 L 3.453125 -102.171875 L 3.453125 -103.75 L 43.390625 -103.75 L 43.390625 -102.171875 L 40.71875 -101.078125 C 38.71875 -100.335938 37.351562 -99.363281 36.625 -98.15625 C 35.894531 -96.957031 35.53125 -95.3125 35.53125 -93.21875 L 35.53125 -55.015625 L 73.09375 -55.015625 L 73.09375 -93.21875 C 73.09375 -95.3125 72.75 -96.957031 72.0625 -98.15625 C 71.382812 -99.363281 70 -100.335938 67.90625 -101.078125 L 65.078125 -102.171875 L 65.078125 -103.75 L 105.15625 -103.75 L 105.15625 -102.171875 L 102.015625 -100.921875 C 100.023438 -100.179688 98.660156 -99.179688 97.921875 -97.921875 C 97.191406 -96.671875 96.828125 -94.992188 96.828125 -92.890625 L 96.828125 -10.6875 C 96.828125 -8.695312 97.191406 -7.070312 97.921875 -5.8125 C 98.660156 -4.550781 100.023438 -3.554688 102.015625 -2.828125 L 105.15625 -1.578125 L 105.15625 0 L 65.078125 0 L 65.078125 -1.578125 L 67.90625 -2.515625 C 70 -3.347656 71.382812 -4.367188 72.0625 -5.578125 C 72.75 -6.785156 73.09375 -8.4375 73.09375 -10.53125 L 73.09375 -51.875 L 35.53125 -51.875 L 35.53125 -10.53125 C 35.53125 -6.65625 37.257812 -3.984375 40.71875 -2.515625 L 43.390625 -1.578125 L 43.390625 0 Z M 3.453125 0 "/></g></g></g></g></g></g><g fill="#000000" fill-opacity="1"><g transform="translate(79.673031, 108.174784)"><g><path d="M 95.34375 8.890625 C 95.375 8.898438 95.394531 8.9375 95.40625 9 C 95.425781 9.0625 95.4375 9.113281 95.4375 9.15625 C 95.40625 9.21875 95.375 9.265625 95.34375 9.296875 C 95.3125 9.328125 95.269531 9.359375 95.21875 9.390625 C 95.039062 9.460938 94.867188 9.488281 94.703125 9.46875 C 94.523438 9.46875 94.351562 9.457031 94.1875 9.4375 C 94.113281 9.425781 94.050781 9.421875 94 9.421875 C 93.164062 9.335938 92.335938 9.25 91.515625 9.15625 C 89.597656 8.957031 87.691406 8.769531 85.796875 8.59375 C 82.109375 8.257812 78.414062 7.957031 74.71875 7.6875 C 69.539062 7.320312 64.359375 7.046875 59.171875 6.859375 C 55.441406 6.722656 51.71875 6.625 48 6.5625 C 47.59375 6.539062 47.175781 6.53125 46.75 6.53125 C 46.320312 6.53125 45.90625 6.519531 45.5 6.5 C 42.96875 6.4375 40.4375 6.40625 37.90625 6.40625 L 37.859375 6.40625 C 36.367188 6.40625 34.890625 6.4375 33.421875 6.5 C 32.867188 6.519531 32.332031 6.53125 31.8125 6.53125 C 31.144531 6.550781 30.46875 6.679688 29.78125 6.921875 C 24.632812 8.722656 19.441406 10.046875 14.203125 10.890625 C 12.679688 11.140625 11.171875 11.347656 9.671875 11.515625 C 8.171875 11.679688 6.660156 11.765625 5.140625 11.765625 C 4.648438 11.765625 4.160156 11.757812 3.671875 11.75 C 2.929688 11.75 2.21875 11.648438 1.53125 11.453125 C 1.257812 11.390625 1.003906 11.300781 0.765625 11.1875 C 0.546875 11.101562 0.363281 10.988281 0.21875 10.84375 C 0.0703125 10.695312 0.0078125 10.492188 0.03125 10.234375 C 0.0703125 9.984375 0.175781 9.769531 0.34375 9.59375 C 0.519531 9.414062 0.722656 9.269531 0.953125 9.15625 C 1.640625 8.757812 2.359375 8.492188 3.109375 8.359375 C 3.484375 8.265625 3.867188 8.175781 4.265625 8.09375 C 5.535156 7.800781 6.816406 7.554688 8.109375 7.359375 C 13.285156 6.597656 18.441406 6.097656 23.578125 5.859375 C 23.890625 5.835938 24.191406 5.816406 24.484375 5.796875 C 26.066406 5.710938 27.65625 5.644531 29.25 5.59375 C 29.8125 5.582031 30.378906 5.476562 30.953125 5.28125 C 32.910156 4.550781 34.835938 3.734375 36.734375 2.828125 C 38.640625 1.929688 40.503906 0.910156 42.328125 -0.234375 C 43.835938 -1.148438 45.226562 -2.234375 46.5 -3.484375 C 47.21875 -4.171875 47.804688 -4.945312 48.265625 -5.8125 C 48.867188 -7.0625 48.757812 -8.148438 47.9375 -9.078125 C 47.34375 -9.679688 46.644531 -10.148438 45.84375 -10.484375 C 44.789062 -10.972656 43.691406 -11.363281 42.546875 -11.65625 C 41.398438 -11.957031 40.238281 -12.210938 39.0625 -12.421875 C 35.726562 -12.960938 32.332031 -13.296875 28.875 -13.421875 C 28.75 -13.421875 28.628906 -13.421875 28.515625 -13.421875 C 28.378906 -13.421875 28.238281 -13.421875 28.09375 -13.421875 C 27.800781 -13.378906 27.578125 -13.203125 27.421875 -12.890625 C 27.347656 -12.753906 27.28125 -12.625 27.21875 -12.5 C 27.0625 -12.207031 26.90625 -11.914062 26.75 -11.625 C 25.519531 -9.132812 24.296875 -6.65625 23.078125 -4.1875 C 22.054688 -2.09375 21.023438 -0.00390625 19.984375 2.078125 C 19.960938 2.148438 19.9375 2.210938 19.90625 2.265625 C 19.78125 2.523438 19.640625 2.769531 19.484375 3 C 19.304688 3.195312 19.101562 3.28125 18.875 3.25 C 18.726562 3.257812 18.59375 3.25 18.46875 3.21875 C 18.21875 3.09375 18.132812 2.90625 18.21875 2.65625 C 18.4375 2.101562 18.675781 1.566406 18.9375 1.046875 C 20.476562 -2.253906 22.023438 -5.535156 23.578125 -8.796875 C 24.085938 -9.835938 24.585938 -10.878906 25.078125 -11.921875 C 25.109375 -12.015625 25.144531 -12.101562 25.1875 -12.1875 C 25.3125 -12.425781 25.421875 -12.660156 25.515625 -12.890625 C 25.648438 -13.242188 25.539062 -13.429688 25.1875 -13.453125 C 25.007812 -13.472656 24.832031 -13.484375 24.65625 -13.484375 C 24.425781 -13.492188 24.203125 -13.507812 23.984375 -13.53125 C 23.941406 -13.53125 23.890625 -13.53125 23.828125 -13.53125 C 23.566406 -13.5625 23.316406 -13.609375 23.078125 -13.671875 C 22.835938 -13.734375 22.695312 -13.914062 22.65625 -14.21875 C 22.65625 -14.539062 22.769531 -14.78125 23 -14.9375 C 23.226562 -15.101562 23.476562 -15.238281 23.75 -15.34375 C 23.851562 -15.375 23.941406 -15.398438 24.015625 -15.421875 C 24.753906 -15.734375 25.507812 -16.007812 26.28125 -16.25 C 26.351562 -16.28125 26.441406 -16.304688 26.546875 -16.328125 C 27.128906 -16.503906 27.566406 -16.878906 27.859375 -17.453125 C 29.171875 -19.929688 30.488281 -22.410156 31.8125 -24.890625 C 32.25 -25.742188 32.707031 -26.613281 33.1875 -27.5 C 33.25 -27.625 33.304688 -27.742188 33.359375 -27.859375 C 33.472656 -28.109375 33.609375 -28.351562 33.765625 -28.59375 C 33.960938 -28.882812 34.21875 -29 34.53125 -28.9375 C 34.675781 -28.957031 34.816406 -28.945312 34.953125 -28.90625 C 35.242188 -28.769531 35.332031 -28.546875 35.21875 -28.234375 C 35.21875 -28.210938 35.207031 -28.203125 35.1875 -28.203125 C 34.96875 -27.535156 34.703125 -26.890625 34.390625 -26.265625 C 33.617188 -24.753906 32.832031 -23.242188 32.03125 -21.734375 C 31.78125 -21.222656 31.519531 -20.71875 31.25 -20.21875 C 31.101562 -19.957031 30.960938 -19.703125 30.828125 -19.453125 C 30.597656 -19.015625 30.375 -18.570312 30.15625 -18.125 C 30.15625 -18.125 30.144531 -18.113281 30.125 -18.09375 C 30.09375 -18.019531 30.0625 -17.941406 30.03125 -17.859375 C 30.007812 -17.773438 30.050781 -17.71875 30.15625 -17.6875 C 30.21875 -17.65625 30.28125 -17.632812 30.34375 -17.625 L 30.390625 -17.640625 C 30.503906 -17.671875 30.632812 -17.703125 30.78125 -17.734375 C 30.8125 -17.753906 30.847656 -17.773438 30.890625 -17.796875 C 35.179688 -19.148438 39.46875 -20.550781 43.75 -22 C 48.03125 -23.457031 52.285156 -25.015625 56.515625 -26.671875 C 56.617188 -26.710938 56.710938 -26.742188 56.796875 -26.765625 C 58.078125 -27.296875 59.359375 -27.828125 60.640625 -28.359375 C 61.929688 -28.898438 63.203125 -29.484375 64.453125 -30.109375 C 65.390625 -30.566406 66.273438 -31.109375 67.109375 -31.734375 C 68.867188 -33.160156 68.941406 -34.441406 67.328125 -35.578125 C 66.566406 -36.085938 65.738281 -36.476562 64.84375 -36.75 C 63.957031 -37.03125 63.046875 -37.226562 62.109375 -37.34375 C 59.867188 -37.675781 57.601562 -37.84375 55.3125 -37.84375 L 55.28125 -37.84375 C 53.070312 -37.820312 50.84375 -37.71875 48.59375 -37.53125 C 43.59375 -37.09375 38.601562 -36.242188 33.625 -34.984375 C 29.039062 -33.859375 24.539062 -32.316406 20.125 -30.359375 C 18.96875 -29.847656 17.84375 -29.265625 16.75 -28.609375 C 16.4375 -28.421875 16.125 -28.242188 15.8125 -28.078125 C 15.632812 -28.003906 15.46875 -27.988281 15.3125 -28.03125 C 15.09375 -27.988281 14.914062 -28.046875 14.78125 -28.203125 C 14.6875 -28.347656 14.679688 -28.476562 14.765625 -28.59375 C 14.859375 -28.707031 14.972656 -28.800781 15.109375 -28.875 C 16.054688 -29.550781 17.035156 -30.109375 18.046875 -30.546875 C 18.066406 -30.546875 18.082031 -30.554688 18.09375 -30.578125 C 22.257812 -32.535156 26.515625 -34.101562 30.859375 -35.28125 C 37.128906 -37.007812 43.429688 -38.085938 49.765625 -38.515625 C 51.722656 -38.660156 53.671875 -38.734375 55.609375 -38.734375 C 57.722656 -38.742188 59.816406 -38.632812 61.890625 -38.40625 C 63.847656 -38.207031 65.710938 -37.753906 67.484375 -37.046875 C 68.304688 -36.734375 69.019531 -36.265625 69.625 -35.640625 C 70.132812 -35.085938 70.359375 -34.476562 70.296875 -33.8125 C 70.242188 -33.15625 69.921875 -32.5 69.328125 -31.84375 C 68.585938 -31.09375 67.753906 -30.472656 66.828125 -29.984375 C 65.722656 -29.367188 64.585938 -28.804688 63.421875 -28.296875 C 62.265625 -27.785156 61.097656 -27.296875 59.921875 -26.828125 C 59.890625 -26.804688 59.84375 -26.785156 59.78125 -26.765625 C 55.6875 -25.078125 51.554688 -23.515625 47.390625 -22.078125 C 43.222656 -20.640625 39.046875 -19.253906 34.859375 -17.921875 C 34.148438 -17.679688 33.445312 -17.441406 32.75 -17.203125 C 31.769531 -16.878906 30.785156 -16.5625 29.796875 -16.25 C 29.367188 -16.144531 29.03125 -15.90625 28.78125 -15.53125 C 28.5625 -15.175781 28.460938 -14.898438 28.484375 -14.703125 C 28.515625 -14.515625 28.738281 -14.410156 29.15625 -14.390625 C 30.269531 -14.347656 31.382812 -14.289062 32.5 -14.21875 C 32.582031 -14.21875 32.65625 -14.21875 32.71875 -14.21875 C 34.820312 -14.082031 36.898438 -13.851562 38.953125 -13.53125 C 41.015625 -13.21875 43.03125 -12.757812 45 -12.15625 C 45.84375 -11.882812 46.65625 -11.570312 47.4375 -11.21875 C 47.957031 -10.976562 48.457031 -10.6875 48.9375 -10.34375 C 50.957031 -8.769531 51.101562 -6.796875 49.375 -4.421875 C 48.800781 -3.640625 48.144531 -2.925781 47.40625 -2.28125 C 45.582031 -0.71875 43.625 0.632812 41.53125 1.78125 C 39.726562 2.769531 37.894531 3.691406 36.03125 4.546875 C 35.8125 4.617188 35.585938 4.71875 35.359375 4.84375 C 35.242188 4.894531 35.113281 4.953125 34.96875 5.015625 C 35.082031 5.191406 35.1875 5.296875 35.28125 5.328125 C 35.382812 5.367188 35.5 5.378906 35.625 5.359375 C 35.625 5.359375 35.632812 5.359375 35.65625 5.359375 C 35.988281 5.378906 36.3125 5.390625 36.625 5.390625 L 36.65625 5.390625 C 36.875 5.390625 37.085938 5.378906 37.296875 5.359375 C 38.273438 5.359375 39.253906 5.359375 40.234375 5.359375 C 46.054688 5.378906 51.847656 5.507812 57.609375 5.75 C 63.878906 5.957031 70.117188 6.335938 76.328125 6.890625 C 78.304688 7.054688 80.285156 7.234375 82.265625 7.421875 C 84.648438 7.609375 87.03125 7.8125 89.40625 8.03125 C 90.800781 8.175781 92.179688 8.34375 93.546875 8.53125 C 93.878906 8.570312 94.222656 8.613281 94.578125 8.65625 C 94.828125 8.6875 95.082031 8.765625 95.34375 8.890625 Z M 26.25 -14.59375 C 26.28125 -14.613281 26.316406 -14.648438 26.359375 -14.703125 C 26.398438 -14.765625 26.429688 -14.816406 26.453125 -14.859375 C 26.453125 -14.898438 26.441406 -14.925781 26.421875 -14.9375 C 26.398438 -14.957031 26.367188 -14.992188 26.328125 -15.046875 C 26.328125 -15.046875 26.316406 -15.050781 26.296875 -15.0625 C 26.085938 -15.019531 25.894531 -14.914062 25.71875 -14.75 C 25.675781 -14.707031 25.660156 -14.660156 25.671875 -14.609375 C 25.679688 -14.554688 25.71875 -14.53125 25.78125 -14.53125 C 25.9375 -14.53125 26.09375 -14.550781 26.25 -14.59375 Z M 24.78125 7.328125 C 24.8125 7.304688 24.851562 7.296875 24.90625 7.296875 C 24.976562 7.273438 25.050781 7.238281 25.125 7.1875 C 25.207031 7.144531 25.265625 7.070312 25.296875 6.96875 C 25.265625 6.894531 25.226562 6.847656 25.1875 6.828125 C 25.164062 6.828125 25.144531 6.828125 25.125 6.828125 C 20.382812 7.035156 15.632812 7.4375 10.875 8.03125 C 8.519531 8.300781 6.175781 8.738281 3.84375 9.34375 C 3.789062 9.375 3.734375 9.398438 3.671875 9.421875 C 3.265625 9.492188 2.894531 9.65625 2.5625 9.90625 C 2.476562 9.96875 2.425781 10.035156 2.40625 10.109375 C 2.382812 10.191406 2.425781 10.265625 2.53125 10.328125 C 2.71875 10.410156 2.925781 10.476562 3.15625 10.53125 C 3.90625 10.664062 4.675781 10.734375 5.46875 10.734375 C 6.132812 10.734375 6.800781 10.703125 7.46875 10.640625 C 13.269531 10.148438 19.039062 9.046875 24.78125 7.328125 Z M 24.78125 7.328125 "/></g></g></g><g fill="#000000" fill-opacity="1"><g transform="translate(136.802087, 108.174784)"><g><path d="M 7.609375 -5.125 C 7.097656 -4.625 6.5 -4.191406 5.8125 -3.828125 C 5.125 -3.460938 4.546875 -3.222656 4.078125 -3.109375 C 3.617188 -3.003906 3.144531 -2.941406 2.65625 -2.921875 C 1.875 -2.890625 1.15625 -3 0.5 -3.25 C -0.582031 -3.6875 -0.957031 -4.519531 -0.625 -5.75 C -0.3125 -6.800781 0.316406 -7.625 1.265625 -8.21875 C 2.222656 -8.820312 3.207031 -9.113281 4.21875 -9.09375 C 4.21875 -9.09375 4.226562 -9.09375 4.25 -9.09375 C 4.507812 -9.113281 4.753906 -9.097656 4.984375 -9.046875 C 5.378906 -8.898438 5.628906 -8.664062 5.734375 -8.34375 C 5.835938 -8.03125 5.765625 -7.675781 5.515625 -7.28125 C 4.941406 -6.414062 4.164062 -5.9375 3.1875 -5.84375 C 2.539062 -5.78125 1.914062 -5.8125 1.3125 -5.9375 C 1.195312 -5.945312 1.09375 -5.910156 1 -5.828125 C 0.914062 -5.753906 0.863281 -5.660156 0.84375 -5.546875 C 0.664062 -4.773438 0.898438 -4.285156 1.546875 -4.078125 C 2.347656 -3.796875 3.179688 -3.796875 4.046875 -4.078125 C 5.046875 -4.390625 5.992188 -4.976562 6.890625 -5.84375 C 7.796875 -6.707031 8.316406 -7.109375 8.453125 -7.046875 C 8.585938 -6.984375 8.628906 -6.816406 8.578125 -6.546875 C 8.453125 -6.109375 8.128906 -5.632812 7.609375 -5.125 Z M 1.921875 -7.28125 C 1.867188 -7.21875 1.832031 -7.144531 1.8125 -7.0625 C 1.789062 -6.988281 1.816406 -6.921875 1.890625 -6.859375 C 2.203125 -6.679688 2.539062 -6.617188 2.90625 -6.671875 C 3.269531 -6.722656 3.578125 -6.859375 3.828125 -7.078125 C 4.085938 -7.304688 4.203125 -7.585938 4.171875 -7.921875 C 4.140625 -8.035156 4.070312 -8.109375 3.96875 -8.140625 C 3.875 -8.171875 3.78125 -8.175781 3.6875 -8.15625 C 3.03125 -8.039062 2.441406 -7.75 1.921875 -7.28125 Z M 1.921875 -7.28125 "/></g></g></g><g fill="#000000" fill-opacity="1"><g transform="translate(148.681892, 108.174784)"><g><path d="M 13.953125 -6.6875 C 14.265625 -6.882812 14.507812 -6.929688 14.6875 -6.828125 C 14.875 -6.734375 14.8125 -6.460938 14.5 -6.015625 C 14.101562 -5.484375 13.398438 -4.921875 12.390625 -4.328125 C 11.378906 -3.734375 10.484375 -3.472656 9.703125 -3.546875 C 8.929688 -3.617188 8.707031 -4.1875 9.03125 -5.25 C 9.363281 -6.320312 9.539062 -6.921875 9.5625 -7.046875 C 9.59375 -7.179688 9.566406 -7.257812 9.484375 -7.28125 C 9.410156 -7.300781 9.238281 -7.210938 8.96875 -7.015625 C 8.164062 -6.460938 7.378906 -5.882812 6.609375 -5.28125 C 6.285156 -5.03125 5.960938 -4.765625 5.640625 -4.484375 C 5.441406 -4.304688 5.234375 -4.128906 5.015625 -3.953125 C 5.015625 -3.953125 5.007812 -3.941406 5 -3.921875 C 4.769531 -3.691406 4.484375 -3.535156 4.140625 -3.453125 C 3.992188 -3.410156 3.832031 -3.394531 3.65625 -3.40625 C 3.488281 -3.425781 3.347656 -3.492188 3.234375 -3.609375 C 3.097656 -3.742188 3.046875 -3.882812 3.078125 -4.03125 C 3.117188 -4.175781 3.234375 -4.394531 3.421875 -4.6875 C 3.609375 -4.976562 3.8125 -5.300781 4.03125 -5.65625 C 4.257812 -6.007812 4.390625 -6.222656 4.421875 -6.296875 C 4.453125 -6.378906 4.4375 -6.460938 4.375 -6.546875 C 4.3125 -6.628906 4.242188 -6.65625 4.171875 -6.625 C 4.097656 -6.59375 3.816406 -6.398438 3.328125 -6.046875 C 2.835938 -5.691406 2.171875 -5.195312 1.328125 -4.5625 C 0.929688 -4.269531 0.546875 -3.96875 0.171875 -3.65625 C 0.078125 -3.5625 -0.0234375 -3.472656 -0.140625 -3.390625 C -0.421875 -3.160156 -0.726562 -3.035156 -1.0625 -3.015625 C -1.300781 -3.003906 -1.476562 -3.054688 -1.59375 -3.171875 C -1.707031 -3.296875 -1.722656 -3.46875 -1.640625 -3.6875 C -1.585938 -3.84375 -1.519531 -3.988281 -1.4375 -4.125 C -1.394531 -4.1875 -1.363281 -4.25 -1.34375 -4.3125 C -0.644531 -5.738281 0.046875 -7.171875 0.734375 -8.609375 C 0.753906 -8.640625 0.769531 -8.6875 0.78125 -8.75 C 0.863281 -8.90625 0.945312 -9.050781 1.03125 -9.1875 C 1.238281 -9.414062 1.492188 -9.492188 1.796875 -9.421875 C 2.128906 -9.316406 2.253906 -9.117188 2.171875 -8.828125 C 2.015625 -8.378906 1.859375 -7.9375 1.703125 -7.5 C 1.628906 -7.3125 1.550781 -7.117188 1.46875 -6.921875 C 1.332031 -6.578125 1.289062 -6.351562 1.34375 -6.25 C 1.394531 -6.15625 1.613281 -6.222656 2 -6.453125 C 2.269531 -6.628906 2.535156 -6.804688 2.796875 -6.984375 C 3.109375 -7.203125 3.410156 -7.398438 3.703125 -7.578125 C 4.148438 -7.847656 4.613281 -8.082031 5.09375 -8.28125 C 5.320312 -8.375 5.554688 -8.445312 5.796875 -8.5 C 6.046875 -8.550781 6.28125 -8.5 6.5 -8.34375 C 6.65625 -8.207031 6.722656 -8.050781 6.703125 -7.875 C 6.679688 -7.707031 6.632812 -7.550781 6.5625 -7.40625 C 6.4375 -7.101562 6.382812 -6.910156 6.40625 -6.828125 C 6.425781 -6.753906 6.492188 -6.738281 6.609375 -6.78125 C 6.722656 -6.832031 6.925781 -6.945312 7.21875 -7.125 C 7.519531 -7.3125 7.835938 -7.507812 8.171875 -7.71875 C 8.597656 -8 9.050781 -8.265625 9.53125 -8.515625 C 9.914062 -8.765625 10.332031 -8.921875 10.78125 -8.984375 C 11.394531 -9.023438 11.644531 -8.773438 11.53125 -8.234375 C 11.425781 -7.691406 11.210938 -7.050781 10.890625 -6.3125 C 10.566406 -5.570312 10.53125 -5.113281 10.78125 -4.9375 C 11.039062 -4.769531 11.601562 -5 12.46875 -5.625 C 13.34375 -6.257812 13.835938 -6.613281 13.953125 -6.6875 Z M 13.953125 -6.6875 "/></g></g></g><g fill="#000000" fill-opacity="1"><g transform="translate(166.920906, 108.174784)"><g><path d="M 67.109375 0.5 C 67.140625 0.519531 67.175781 0.554688 67.21875 0.609375 C 67.257812 0.660156 67.28125 0.71875 67.28125 0.78125 C 67.28125 0.875 67.25 0.945312 67.1875 1 C 67.132812 1.0625 67.066406 1.09375 66.984375 1.09375 L 66.71875 1.0625 C 66.675781 1.082031 66.648438 1.09375 66.640625 1.09375 C 61.691406 0.820312 56.816406 0.65625 52.015625 0.59375 C 47.210938 0.53125 42.375 0.507812 37.5 0.53125 C 36.695312 0.53125 35.90625 0.53125 35.125 0.53125 C 34.632812 0.53125 34.238281 0.625 33.9375 0.8125 C 33.632812 1 33.375 1.328125 33.15625 1.796875 C 31.90625 4.660156 30.625 7.515625 29.3125 10.359375 C 28.59375 11.898438 27.882812 13.445312 27.1875 15 C 26.675781 16.132812 26.175781 17.28125 25.6875 18.4375 C 25.425781 19.007812 25.179688 19.578125 24.953125 20.140625 C 24.929688 20.191406 24.898438 20.25 24.859375 20.3125 C 24.828125 20.476562 24.757812 20.628906 24.65625 20.765625 C 24.5 20.890625 24.289062 20.960938 24.03125 20.984375 C 23.78125 21.015625 23.5625 20.96875 23.375 20.84375 C 23.1875 20.726562 23.132812 20.519531 23.21875 20.21875 C 23.394531 19.726562 23.59375 19.253906 23.8125 18.796875 C 25.6875 14.503906 27.578125 10.210938 29.484375 5.921875 C 29.929688 4.921875 30.378906 3.910156 30.828125 2.890625 C 30.890625 2.734375 30.957031 2.566406 31.03125 2.390625 C 31.195312 2.035156 31.359375 1.679688 31.515625 1.328125 C 31.660156 0.941406 31.5625 0.726562 31.21875 0.6875 C 28.726562 0.75 26.25 0.859375 23.78125 1.015625 C 22.488281 1.085938 21.179688 1.15625 19.859375 1.21875 C 19.117188 1.238281 18.601562 1.585938 18.3125 2.265625 C 17.019531 5.054688 15.675781 7.820312 14.28125 10.5625 C 13.457031 12.1875 12.625 13.8125 11.78125 15.4375 C 11.46875 16.03125 11.15625 16.617188 10.84375 17.203125 C 10.664062 17.578125 10.472656 17.929688 10.265625 18.265625 C 10.046875 18.554688 9.753906 18.734375 9.390625 18.796875 C 9.023438 18.867188 8.707031 18.847656 8.4375 18.734375 C 8.164062 18.628906 8.039062 18.460938 8.0625 18.234375 C 8.15625 17.773438 8.289062 17.34375 8.46875 16.9375 C 9.875 13.332031 11.410156 9.789062 13.078125 6.3125 C 13.660156 5.070312 14.25 3.832031 14.84375 2.59375 C 15 2.195312 14.890625 1.972656 14.515625 1.921875 C 14.140625 1.878906 13.59375 1.898438 12.875 1.984375 C 12.851562 1.984375 12.820312 1.984375 12.78125 1.984375 C 11.53125 2.097656 10.242188 2.269531 8.921875 2.5 C 7.597656 2.738281 6.726562 2.914062 6.3125 3.03125 C 5.90625 3.125 5.488281 3.171875 5.0625 3.171875 C 5.03125 3.203125 5 3.21875 4.96875 3.21875 C 4.9375 3.21875 4.894531 3.203125 4.84375 3.171875 L 4.625 3.21875 C 4.539062 3.21875 4.457031 3.1875 4.375 3.125 C 4.300781 3.0625 4.265625 2.984375 4.265625 2.890625 C 4.273438 2.835938 4.304688 2.769531 4.359375 2.6875 C 4.410156 2.601562 4.46875 2.546875 4.53125 2.515625 C 6.09375 1.960938 7.691406 1.578125 9.328125 1.359375 C 11.179688 1.085938 13.039062 0.851562 14.90625 0.65625 C 15.53125 0.632812 15.972656 0.347656 16.234375 -0.203125 C 16.773438 -1.316406 17.335938 -2.429688 17.921875 -3.546875 C 18.628906 -4.859375 19.347656 -6.171875 20.078125 -7.484375 C 20.328125 -7.972656 20.582031 -8.460938 20.84375 -8.953125 C 20.875 -8.992188 20.90625 -9.039062 20.9375 -9.09375 C 21.007812 -9.257812 21.09375 -9.40625 21.1875 -9.53125 C 21.675781 -10.101562 22.085938 -10.722656 22.421875 -11.390625 C 22.753906 -12.054688 23.0625 -12.742188 23.34375 -13.453125 C 23.46875 -13.742188 23.59375 -14.035156 23.71875 -14.328125 C 26.09375 -19.671875 28.429688 -25.03125 30.734375 -30.40625 C 31.796875 -32.757812 32.613281 -35.179688 33.1875 -37.671875 C 33.414062 -38.566406 33.472656 -39.46875 33.359375 -40.375 C 33.242188 -40.894531 32.898438 -41.164062 32.328125 -41.1875 C 31.753906 -41.207031 31.0625 -41.0625 30.25 -40.75 C 29.445312 -40.4375 28.609375 -40.050781 27.734375 -39.59375 C 26.859375 -39.144531 26.066406 -38.703125 25.359375 -38.265625 C 24.660156 -37.835938 24.144531 -37.519531 23.8125 -37.3125 C 23.707031 -37.257812 23.640625 -37.21875 23.609375 -37.1875 C 14.410156 -31.46875 6.179688 -24.601562 -1.078125 -16.59375 C -1.878906 -15.707031 -2.644531 -14.796875 -3.375 -13.859375 C -4.113281 -12.921875 -4.789062 -11.929688 -5.40625 -10.890625 C -5.875 -10.109375 -6.242188 -9.285156 -6.515625 -8.421875 C -6.859375 -7.109375 -6.765625 -6.101562 -6.234375 -5.40625 C -5.703125 -4.71875 -4.90625 -4.253906 -3.84375 -4.015625 C -2.78125 -3.773438 -1.628906 -3.691406 -0.390625 -3.765625 C 0.847656 -3.835938 2.015625 -3.960938 3.109375 -4.140625 C 4.210938 -4.328125 5.066406 -4.507812 5.671875 -4.6875 C 6.398438 -4.863281 7.128906 -5.035156 7.859375 -5.203125 C 8.484375 -5.316406 8.65625 -5.273438 8.375 -5.078125 C 8.101562 -4.878906 7.503906 -4.609375 6.578125 -4.265625 C 5.660156 -3.921875 4.554688 -3.585938 3.265625 -3.265625 C 1.984375 -2.941406 0.660156 -2.707031 -0.703125 -2.5625 C -2.078125 -2.425781 -3.363281 -2.457031 -4.5625 -2.65625 C -5.769531 -2.851562 -6.75 -3.300781 -7.5 -4 C -8.257812 -4.695312 -8.648438 -5.734375 -8.671875 -7.109375 C -8.671875 -7.140625 -8.671875 -7.175781 -8.671875 -7.21875 C -8.628906 -8.082031 -8.425781 -8.90625 -8.0625 -9.6875 C -7.445312 -11.101562 -6.660156 -12.414062 -5.703125 -13.625 C -4.691406 -14.9375 -3.640625 -16.203125 -2.546875 -17.421875 C 4.503906 -25.160156 12.445312 -31.835938 21.28125 -37.453125 C 22.320312 -38.117188 23.53125 -38.847656 24.90625 -39.640625 C 26.289062 -40.441406 27.710938 -41.109375 29.171875 -41.640625 C 30.628906 -42.179688 32 -42.425781 33.28125 -42.375 C 34.6875 -42.289062 35.457031 -41.554688 35.59375 -40.171875 C 35.65625 -39.648438 35.648438 -39.144531 35.578125 -38.65625 C 35.515625 -38.164062 35.421875 -37.675781 35.296875 -37.1875 C 35.273438 -37.113281 35.253906 -37.039062 35.234375 -36.96875 C 34.984375 -35.789062 34.648438 -34.640625 34.234375 -33.515625 C 33.828125 -32.398438 33.390625 -31.296875 32.921875 -30.203125 C 28.898438 -20.660156 24.695312 -11.207031 20.3125 -1.84375 C 20.175781 -1.5625 20.050781 -1.273438 19.9375 -0.984375 C 19.738281 -0.535156 19.753906 -0.222656 19.984375 -0.046875 C 20.222656 0.128906 20.617188 0.21875 21.171875 0.21875 C 21.734375 0.21875 22.390625 0.191406 23.140625 0.140625 C 23.253906 0.140625 23.367188 0.125 23.484375 0.09375 C 23.972656 0.0703125 24.472656 0.046875 24.984375 0.015625 C 27.234375 -0.160156 29.46875 -0.28125 31.6875 -0.34375 C 32.082031 -0.34375 32.351562 -0.507812 32.5 -0.84375 C 32.675781 -1.195312 32.847656 -1.554688 33.015625 -1.921875 C 35.910156 -8.285156 38.921875 -14.59375 42.046875 -20.84375 C 45.171875 -27.101562 48.335938 -33.335938 51.546875 -39.546875 C 51.585938 -39.617188 51.628906 -39.695312 51.671875 -39.78125 C 51.785156 -40.070312 51.957031 -40.316406 52.1875 -40.515625 C 52.375 -40.617188 52.582031 -40.671875 52.8125 -40.671875 C 53.050781 -40.671875 53.25 -40.613281 53.40625 -40.5 C 53.570312 -40.394531 53.609375 -40.207031 53.515625 -39.9375 C 53.492188 -39.875 53.46875 -39.804688 53.4375 -39.734375 C 53.175781 -39.066406 52.890625 -38.40625 52.578125 -37.75 C 50.992188 -34.5625 49.394531 -31.378906 47.78125 -28.203125 C 47.21875 -27.066406 46.65625 -25.929688 46.09375 -24.796875 C 42.351562 -17.328125 38.6875 -9.820312 35.09375 -2.28125 C 35.03125 -2.144531 34.960938 -2.007812 34.890625 -1.875 C 34.816406 -1.707031 34.75 -1.550781 34.6875 -1.40625 C 34.46875 -0.925781 34.453125 -0.617188 34.640625 -0.484375 C 34.828125 -0.347656 35.125 -0.300781 35.53125 -0.34375 C 39.820312 -0.570312 44.195312 -0.625 48.65625 -0.5 C 53.113281 -0.375 57.539062 -0.191406 61.9375 0.046875 C 63.28125 0.109375 64.617188 0.171875 65.953125 0.234375 C 66.015625 0.234375 66.0625 0.234375 66.09375 0.234375 C 66.28125 0.234375 66.457031 0.25 66.625 0.28125 C 66.800781 0.3125 66.960938 0.382812 67.109375 0.5 Z M 67.109375 0.5 "/></g></g></g><g fill="#000000" fill-opacity="1"><g transform="translate(213.348851, 108.174784)"><g><path d="M 2.125 -3.171875 L 2.078125 -3.171875 C 0.785156 -3.179688 -0.0625 -3.460938 -0.46875 -4.015625 C -0.875 -4.578125 -0.859375 -5.320312 -0.421875 -6.25 C -0.046875 -6.957031 0.425781 -7.570312 1 -8.09375 C 1.195312 -8.269531 1.394531 -8.410156 1.59375 -8.515625 C 1.800781 -8.628906 2.035156 -8.6875 2.296875 -8.6875 C 2.453125 -8.707031 2.625 -8.679688 2.8125 -8.609375 C 2.875 -8.585938 2.9375 -8.5625 3 -8.53125 C 3.15625 -8.5625 3.304688 -8.613281 3.453125 -8.6875 C 3.484375 -8.707031 3.53125 -8.726562 3.59375 -8.75 C 3.882812 -8.863281 4.195312 -8.910156 4.53125 -8.890625 C 4.664062 -8.890625 4.800781 -8.890625 4.9375 -8.890625 C 5.46875 -8.816406 5.863281 -8.597656 6.125 -8.234375 C 6.394531 -7.867188 6.488281 -7.429688 6.40625 -6.921875 C 6.363281 -6.609375 6.269531 -6.3125 6.125 -6.03125 C 5.09375 -4.195312 3.785156 -3.242188 2.203125 -3.171875 Z M 4.234375 -7.953125 C 3.523438 -7.972656 2.894531 -7.765625 2.34375 -7.328125 C 1.800781 -6.898438 1.394531 -6.40625 1.125 -5.84375 C 0.863281 -5.289062 0.789062 -4.832031 0.90625 -4.46875 C 1.03125 -4.101562 1.40625 -4.003906 2.03125 -4.171875 C 2.738281 -4.378906 3.359375 -4.773438 3.890625 -5.359375 C 4.429688 -5.953125 4.757812 -6.515625 4.875 -7.046875 C 5 -7.578125 4.785156 -7.878906 4.234375 -7.953125 Z M 4.234375 -7.953125 "/></g></g></g><g fill="#000000" fill-opacity="1"><g transform="translate(224.547324, 108.174784)"><g><path d="M 6.46875 -6.765625 C 5.0625 -6.242188 4.046875 -5.816406 3.421875 -5.484375 C 2.960938 -5.265625 2.695312 -5.082031 2.625 -4.9375 C 2.5625 -4.789062 2.617188 -4.519531 2.796875 -4.125 C 2.796875 -4.101562 2.804688 -4.078125 2.828125 -4.046875 C 3.023438 -3.578125 3.140625 -3.085938 3.171875 -2.578125 C 3.234375 -1.554688 2.363281 -0.835938 0.5625 -0.421875 C -1.238281 -0.015625 -2.441406 -0.00390625 -3.046875 -0.390625 C -3.660156 -0.773438 -3.847656 -1.257812 -3.609375 -1.84375 C -3.378906 -2.425781 -2.769531 -3.019531 -1.78125 -3.625 C -0.789062 -4.238281 -0.128906 -4.675781 0.203125 -4.9375 C 0.535156 -5.207031 0.632812 -5.507812 0.5 -5.84375 C 0.457031 -5.957031 0.410156 -6.070312 0.359375 -6.1875 C 0.242188 -6.457031 0.125 -6.742188 0 -7.046875 C -0.226562 -7.578125 -0.328125 -8.097656 -0.296875 -8.609375 C -0.265625 -9.128906 -0.078125 -9.566406 0.265625 -9.921875 C 0.617188 -10.273438 1.164062 -10.460938 1.90625 -10.484375 C 2.320312 -10.503906 2.695312 -10.445312 3.03125 -10.3125 C 3.363281 -10.1875 3.628906 -9.953125 3.828125 -9.609375 C 3.984375 -9.367188 3.929688 -9.148438 3.671875 -8.953125 C 3.503906 -8.816406 3.320312 -8.796875 3.125 -8.890625 C 3 -8.953125 2.878906 -9.03125 2.765625 -9.125 C 2.765625 -9.15625 2.765625 -9.171875 2.765625 -9.171875 C 2.710938 -9.203125 2.664062 -9.234375 2.625 -9.265625 C 2.5625 -9.347656 2.5 -9.410156 2.4375 -9.453125 C 2.207031 -9.628906 1.972656 -9.679688 1.734375 -9.609375 C 1.503906 -9.546875 1.332031 -9.367188 1.21875 -9.078125 C 1.132812 -8.835938 1.09375 -8.597656 1.09375 -8.359375 C 1.113281 -8.066406 1.179688 -7.78125 1.296875 -7.5 C 1.378906 -7.332031 1.453125 -7.179688 1.515625 -7.046875 C 1.660156 -6.648438 1.78125 -6.378906 1.875 -6.234375 C 1.976562 -6.085938 2.097656 -6.023438 2.234375 -6.046875 C 2.367188 -6.066406 3.632812 -6.519531 6.03125 -7.40625 C 6.539062 -7.570312 6.6875 -7.359375 6.46875 -6.765625 Z M 0.6875 -1.671875 C 1.300781 -1.878906 1.5625 -2.296875 1.46875 -2.921875 C 1.46875 -2.972656 1.457031 -3.023438 1.4375 -3.078125 C 1.40625 -3.410156 1.332031 -3.664062 1.21875 -3.84375 C 1.113281 -4.03125 0.875 -4.023438 0.5 -3.828125 C -0.414062 -3.304688 -1.269531 -2.691406 -2.0625 -1.984375 C -2.113281 -1.921875 -2.160156 -1.863281 -2.203125 -1.8125 C -2.203125 -1.8125 -2.210938 -1.800781 -2.234375 -1.78125 C -2.285156 -1.707031 -2.289062 -1.625 -2.25 -1.53125 C -2.21875 -1.445312 -2.140625 -1.40625 -2.015625 -1.40625 C -1.097656 -1.257812 -0.195312 -1.347656 0.6875 -1.671875 Z M 0.6875 -1.671875 "/></g></g></g><g fill="#000000" fill-opacity="1"><g transform="translate(234.570145, 108.174784)"><g><path d="M 10.640625 -7.015625 C 10.441406 -6.929688 10.234375 -6.863281 10.015625 -6.8125 C 9.960938 -6.78125 9.914062 -6.757812 9.875 -6.75 C 9.65625 -6.664062 9.441406 -6.585938 9.234375 -6.515625 C 8.628906 -6.316406 8.007812 -6.109375 7.375 -5.890625 C 6.90625 -5.753906 6.535156 -5.460938 6.265625 -5.015625 C 5.828125 -4.304688 5.28125 -3.753906 4.625 -3.359375 C 3.96875 -2.972656 3.300781 -2.695312 2.625 -2.53125 C 1.945312 -2.363281 1.347656 -2.257812 0.828125 -2.21875 C 0.304688 -2.1875 -0.0234375 -2.175781 -0.171875 -2.1875 C -0.191406 -2.1875 -0.210938 -2.1875 -0.234375 -2.1875 C -0.453125 -2.050781 -0.664062 -1.785156 -0.875 -1.390625 C -1.09375 -1.003906 -1.28125 -0.65625 -1.4375 -0.34375 C -1.476562 -0.269531 -1.503906 -0.203125 -1.515625 -0.140625 C -2.398438 1.628906 -3.273438 3.394531 -4.140625 5.15625 C -4.628906 6.132812 -5.117188 7.113281 -5.609375 8.09375 C -5.765625 8.4375 -5.953125 8.769531 -6.171875 9.09375 C -6.367188 9.34375 -6.613281 9.394531 -6.90625 9.25 C -7.101562 9.101562 -7.148438 8.90625 -7.046875 8.65625 C -6.953125 8.394531 -6.847656 8.132812 -6.734375 7.875 C -5.203125 4.25 -3.578125 0.664062 -1.859375 -2.875 C -1.328125 -3.96875 -0.820312 -5.082031 -0.34375 -6.21875 C -0.132812 -6.75 0.0859375 -7.289062 0.328125 -7.84375 C 0.335938 -7.894531 0.367188 -7.953125 0.421875 -8.015625 C 0.535156 -8.304688 0.671875 -8.59375 0.828125 -8.875 C 0.898438 -8.96875 1.03125 -9.023438 1.21875 -9.046875 C 1.414062 -9.078125 1.585938 -9.054688 1.734375 -8.984375 C 1.910156 -8.859375 2 -8.679688 2 -8.453125 C 2 -8.335938 1.976562 -8.21875 1.9375 -8.09375 C 1.90625 -8 1.882812 -7.898438 1.875 -7.796875 C 1.863281 -7.703125 1.894531 -7.601562 1.96875 -7.5 C 2.101562 -7.488281 2.222656 -7.507812 2.328125 -7.5625 C 2.441406 -7.625 2.546875 -7.695312 2.640625 -7.78125 C 2.742188 -7.851562 2.863281 -7.910156 3 -7.953125 C 3.070312 -7.992188 3.148438 -8.03125 3.234375 -8.0625 C 3.660156 -8.257812 4.082031 -8.429688 4.5 -8.578125 C 5.039062 -8.742188 5.582031 -8.703125 6.125 -8.453125 C 6.351562 -8.316406 6.523438 -8.144531 6.640625 -7.9375 C 6.753906 -7.726562 6.84375 -7.507812 6.90625 -7.28125 C 6.96875 -7.101562 7.128906 -7.007812 7.390625 -7 C 7.648438 -6.988281 7.941406 -7.019531 8.265625 -7.09375 C 8.597656 -7.175781 8.898438 -7.253906 9.171875 -7.328125 C 9.390625 -7.390625 9.546875 -7.429688 9.640625 -7.453125 C 9.910156 -7.515625 10.179688 -7.53125 10.453125 -7.5 C 10.535156 -7.5 10.609375 -7.484375 10.671875 -7.453125 C 10.742188 -7.429688 10.78125 -7.363281 10.78125 -7.25 C 10.78125 -7.207031 10.765625 -7.160156 10.734375 -7.109375 C 10.710938 -7.066406 10.679688 -7.035156 10.640625 -7.015625 Z M 5.015625 -6.125 C 5.203125 -6.25 5.3125 -6.441406 5.34375 -6.703125 C 5.382812 -6.972656 5.359375 -7.234375 5.265625 -7.484375 C 5.222656 -7.554688 5.160156 -7.609375 5.078125 -7.640625 C 5.003906 -7.671875 4.925781 -7.6875 4.84375 -7.6875 C 4.6875 -7.664062 4.53125 -7.617188 4.375 -7.546875 C 2.726562 -6.722656 1.398438 -5.546875 0.390625 -4.015625 C 0.191406 -3.660156 0.210938 -3.503906 0.453125 -3.546875 C 0.703125 -3.585938 1.070312 -3.738281 1.5625 -4 C 2.050781 -4.257812 2.554688 -4.5625 3.078125 -4.90625 C 3.609375 -5.25 4.0625 -5.539062 4.4375 -5.78125 C 4.769531 -6 4.960938 -6.113281 5.015625 -6.125 Z M 5.015625 -6.125 "/></g></g></g><g fill="#000000" fill-opacity="1"><g transform="translate(248.520713, 108.174784)"><g><path d="M 7.609375 -5.125 C 7.097656 -4.625 6.5 -4.191406 5.8125 -3.828125 C 5.125 -3.460938 4.546875 -3.222656 4.078125 -3.109375 C 3.617188 -3.003906 3.144531 -2.941406 2.65625 -2.921875 C 1.875 -2.890625 1.15625 -3 0.5 -3.25 C -0.582031 -3.6875 -0.957031 -4.519531 -0.625 -5.75 C -0.3125 -6.800781 0.316406 -7.625 1.265625 -8.21875 C 2.222656 -8.820312 3.207031 -9.113281 4.21875 -9.09375 C 4.21875 -9.09375 4.226562 -9.09375 4.25 -9.09375 C 4.507812 -9.113281 4.753906 -9.097656 4.984375 -9.046875 C 5.378906 -8.898438 5.628906 -8.664062 5.734375 -8.34375 C 5.835938 -8.03125 5.765625 -7.675781 5.515625 -7.28125 C 4.941406 -6.414062 4.164062 -5.9375 3.1875 -5.84375 C 2.539062 -5.78125 1.914062 -5.8125 1.3125 -5.9375 C 1.195312 -5.945312 1.09375 -5.910156 1 -5.828125 C 0.914062 -5.753906 0.863281 -5.660156 0.84375 -5.546875 C 0.664062 -4.773438 0.898438 -4.285156 1.546875 -4.078125 C 2.347656 -3.796875 3.179688 -3.796875 4.046875 -4.078125 C 5.046875 -4.390625 5.992188 -4.976562 6.890625 -5.84375 C 7.796875 -6.707031 8.316406 -7.109375 8.453125 -7.046875 C 8.585938 -6.984375 8.628906 -6.816406 8.578125 -6.546875 C 8.453125 -6.109375 8.128906 -5.632812 7.609375 -5.125 Z M 1.921875 -7.28125 C 1.867188 -7.21875 1.832031 -7.144531 1.8125 -7.0625 C 1.789062 -6.988281 1.816406 -6.921875 1.890625 -6.859375 C 2.203125 -6.679688 2.539062 -6.617188 2.90625 -6.671875 C 3.269531 -6.722656 3.578125 -6.859375 3.828125 -7.078125 C 4.085938 -7.304688 4.203125 -7.585938 4.171875 -7.921875 C 4.140625 -8.035156 4.070312 -8.109375 3.96875 -8.140625 C 3.875 -8.171875 3.78125 -8.175781 3.6875 -8.15625 C 3.03125 -8.039062 2.441406 -7.75 1.921875 -7.28125 Z M 1.921875 -7.28125 "/></g></g></g><g fill="#000000" fill-opacity="1"><g transform="translate(260.400524, 108.174784)"><g><path d="M 11.859375 -7.03125 C 12.046875 -6.976562 12.144531 -6.90625 12.15625 -6.8125 C 12.164062 -6.726562 12.171875 -6.6875 12.171875 -6.6875 C 11.953125 -6.3125 11.707031 -5.972656 11.4375 -5.671875 C 10.800781 -4.960938 10.066406 -4.398438 9.234375 -3.984375 C 8.816406 -3.753906 8.351562 -3.628906 7.84375 -3.609375 C 6.644531 -3.585938 6.097656 -4.164062 6.203125 -5.34375 C 6.242188 -5.59375 6.300781 -5.835938 6.375 -6.078125 C 6.414062 -6.191406 6.445312 -6.304688 6.46875 -6.421875 C 6.582031 -6.847656 6.613281 -7.085938 6.5625 -7.140625 C 6.519531 -7.191406 6.378906 -7.066406 6.140625 -6.765625 C 6.078125 -6.710938 6.019531 -6.65625 5.96875 -6.59375 C 5.613281 -6.164062 5.25 -5.75 4.875 -5.34375 C 4.1875 -4.5625 3.40625 -3.898438 2.53125 -3.359375 C 2 -3.054688 1.441406 -2.894531 0.859375 -2.875 C -0.109375 -2.832031 -0.648438 -3.269531 -0.765625 -4.1875 C -0.804688 -4.5625 -0.785156 -4.929688 -0.703125 -5.296875 C -0.316406 -6.816406 0.460938 -7.972656 1.640625 -8.765625 C 2.816406 -9.554688 4.160156 -9.835938 5.671875 -9.609375 C 6.097656 -9.484375 6.410156 -9.597656 6.609375 -9.953125 C 6.691406 -10.085938 6.773438 -10.222656 6.859375 -10.359375 C 7.265625 -11.066406 7.664062 -11.773438 8.0625 -12.484375 C 8.800781 -13.835938 9.539062 -15.195312 10.28125 -16.5625 C 10.882812 -17.644531 11.492188 -18.734375 12.109375 -19.828125 C 12.285156 -20.160156 12.476562 -20.484375 12.6875 -20.796875 C 12.789062 -20.953125 12.914062 -21.046875 13.0625 -21.078125 C 13.207031 -21.109375 13.359375 -21.125 13.515625 -21.125 C 13.554688 -21.125 13.597656 -21.125 13.640625 -21.125 C 13.816406 -21.125 13.957031 -21.078125 14.0625 -20.984375 C 14.175781 -20.898438 14.203125 -20.78125 14.140625 -20.625 C 14.015625 -20.25 13.875 -19.894531 13.71875 -19.5625 C 12.894531 -17.914062 12.117188 -16.253906 11.390625 -14.578125 C 10.671875 -12.898438 9.960938 -11.210938 9.265625 -9.515625 C 9.023438 -8.921875 8.785156 -8.332031 8.546875 -7.75 C 8.253906 -7.0625 8.007812 -6.359375 7.8125 -5.640625 C 7.757812 -5.472656 7.734375 -5.3125 7.734375 -5.15625 C 7.734375 -5 7.8125 -4.863281 7.96875 -4.75 C 8.0625 -4.6875 8.160156 -4.675781 8.265625 -4.71875 C 8.367188 -4.757812 8.484375 -4.804688 8.609375 -4.859375 C 8.628906 -4.890625 8.660156 -4.910156 8.703125 -4.921875 C 9.546875 -5.421875 10.316406 -6.007812 11.015625 -6.6875 C 11.128906 -6.800781 11.25 -6.898438 11.375 -6.984375 C 11.507812 -7.066406 11.671875 -7.082031 11.859375 -7.03125 Z M 5.265625 -7.890625 C 5.359375 -8.054688 5.382812 -8.210938 5.34375 -8.359375 C 5.3125 -8.503906 5.210938 -8.613281 5.046875 -8.6875 C 4.722656 -8.863281 4.375 -8.882812 4 -8.75 C 3.082031 -8.476562 2.3125 -7.953125 1.6875 -7.171875 C 1.070312 -6.398438 0.738281 -5.546875 0.6875 -4.609375 C 0.695312 -4.566406 0.703125 -4.535156 0.703125 -4.515625 C 0.703125 -4.429688 0.703125 -4.351562 0.703125 -4.28125 C 0.785156 -3.851562 1.050781 -3.769531 1.5 -4.03125 C 1.945312 -4.289062 2.445312 -4.710938 3 -5.296875 C 3.5625 -5.890625 4.0625 -6.453125 4.5 -6.984375 C 4.945312 -7.515625 5.203125 -7.816406 5.265625 -7.890625 Z M 5.265625 -7.890625 "/></g></g></g><g fill="#000000" fill-opacity="1"><g transform="translate(275.673694, 108.174784)"><g><path d="M 9.6875 -6.796875 C 9.894531 -6.679688 9.910156 -6.394531 9.734375 -5.9375 C 9.472656 -5.59375 9.195312 -5.273438 8.90625 -4.984375 C 8.613281 -4.691406 8.296875 -4.425781 7.953125 -4.1875 C 7.921875 -4.1875 7.90625 -4.179688 7.90625 -4.171875 C 7.675781 -4.003906 7.429688 -3.863281 7.171875 -3.75 C 5.046875 -2.988281 3.960938 -3.441406 3.921875 -5.109375 C 3.054688 -4.359375 2.472656 -3.898438 2.171875 -3.734375 C 1.472656 -3.304688 0.710938 -3.117188 -0.109375 -3.171875 C -0.710938 -3.203125 -1.125 -3.382812 -1.34375 -3.71875 C -1.5625 -4.050781 -1.539062 -4.503906 -1.28125 -5.078125 C -0.882812 -5.972656 -0.328125 -6.773438 0.390625 -7.484375 C 1.234375 -8.265625 2.171875 -8.890625 3.203125 -9.359375 C 3.753906 -9.640625 4.332031 -9.75 4.9375 -9.6875 C 5.539062 -9.644531 5.90625 -9.300781 6.03125 -8.65625 C 6.09375 -8.457031 6.046875 -8.285156 5.890625 -8.140625 C 5.691406 -7.960938 5.460938 -7.921875 5.203125 -8.015625 C 5.191406 -8.015625 5.171875 -8.019531 5.140625 -8.03125 C 5.109375 -8.039062 5.082031 -8.050781 5.0625 -8.0625 C 4.800781 -8.425781 4.539062 -8.578125 4.28125 -8.515625 C 4.019531 -8.453125 3.742188 -8.332031 3.453125 -8.15625 C 2.078125 -7.351562 1.054688 -6.238281 0.390625 -4.8125 C 0.347656 -4.75 0.320312 -4.675781 0.3125 -4.59375 C 0.3125 -4.519531 0.335938 -4.460938 0.390625 -4.421875 C 0.546875 -4.367188 0.722656 -4.378906 0.921875 -4.453125 C 1.117188 -4.523438 1.3125 -4.632812 1.5 -4.78125 C 1.695312 -4.9375 1.863281 -5.0625 2 -5.15625 C 2.019531 -5.1875 2.03125 -5.203125 2.03125 -5.203125 C 2.675781 -5.742188 3.3125 -6.296875 3.9375 -6.859375 C 4.21875 -7.160156 4.5625 -7.328125 4.96875 -7.359375 C 5.550781 -7.359375 5.796875 -7.097656 5.703125 -6.578125 C 5.648438 -6.378906 5.59375 -6.179688 5.53125 -5.984375 C 5.300781 -5.140625 5.289062 -4.644531 5.5 -4.5 C 5.71875 -4.351562 6.046875 -4.351562 6.484375 -4.5 C 6.921875 -4.644531 7.359375 -4.921875 7.796875 -5.328125 C 8.242188 -5.742188 8.617188 -6.125 8.921875 -6.46875 C 9.222656 -6.8125 9.476562 -6.921875 9.6875 -6.796875 Z M 9.6875 -6.796875 "/></g></g></g><g fill="#000000" fill-opacity="1"><g transform="translate(288.635633, 108.174784)"><g><path d="M 6.40625 -8.203125 C 6.332031 -7.585938 6.046875 -7.1875 5.546875 -7 C 5.046875 -6.8125 4.878906 -7.054688 5.046875 -7.734375 C 5.222656 -8.410156 4.921875 -8.582031 4.140625 -8.25 C 3.359375 -7.914062 2.710938 -7.492188 2.203125 -6.984375 C 1.421875 -6.179688 0.726562 -5.316406 0.125 -4.390625 C 0.0625 -4.316406 0.0078125 -4.25 -0.03125 -4.1875 C -0.207031 -3.9375 -0.382812 -3.691406 -0.5625 -3.453125 C -0.675781 -3.296875 -0.8125 -3.195312 -0.96875 -3.15625 C -1.125 -3.113281 -1.28125 -3.109375 -1.4375 -3.140625 C -1.59375 -3.160156 -1.707031 -3.21875 -1.78125 -3.3125 C -1.863281 -3.40625 -1.875 -3.519531 -1.8125 -3.65625 C -1.71875 -3.894531 -1.601562 -4.140625 -1.46875 -4.390625 C -0.664062 -5.878906 0.144531 -7.375 0.96875 -8.875 C 0.988281 -8.882812 1 -8.898438 1 -8.921875 C 1.113281 -9.148438 1.253906 -9.363281 1.421875 -9.5625 C 1.597656 -9.757812 1.800781 -9.835938 2.03125 -9.796875 C 2.257812 -9.765625 2.414062 -9.628906 2.5 -9.390625 C 2.59375 -9.078125 2.675781 -8.898438 2.75 -8.859375 C 2.820312 -8.816406 2.984375 -8.847656 3.234375 -8.953125 C 3.765625 -9.148438 4.285156 -9.285156 4.796875 -9.359375 C 5.304688 -9.441406 5.722656 -9.421875 6.046875 -9.296875 C 6.367188 -9.179688 6.488281 -8.816406 6.40625 -8.203125 Z M 6.40625 -8.203125 "/></g></g></g></svg>